/* XPM */
static char * bolt2_xpm[] = {
"64 64 12 1",
" 	c #656565",
".	c #2D2D2D",
"+	c #7D7D7D",
"@	c #797979",
"#	c #0C0C0C",
"$	c #454545",
"%	c #969696",
"&	c #ACACAC",
"*	c #888888",
"=	c #4C4C4C",
"-	c #2C2C2C",
";	c #5E5E5E",
"                                                                ",
"  ............................+ .............................+  ",
"  .@@@@@@@@@@@@@@@@@@@@@@@@@@@+ .@@@@@@@@@@@@@@@@@@@@@@@@@@@@+  ",
"  .##$$#####$$#####$$#####$$##+ .$$#####$$#####$$####$$####$$+  ",
"  .##$$#####$$#####$$#####$$##+ .$$#####$$#####$$####$$####$$+  ",
"  .%%%%%%%%%%%%%%%%%%%%%%%%%%%+ .%%%%%%%%%%%%%%%%%%%%%%%%%%%%+  ",
"  .@@@@@@@@@@@@@@@@@@@@@@@@@@@+ .@@@@@@@@@@@@@@@@@@@@@@@@@@@@+  ",
"  .##$$#####$$#####$$#####$$##+ .$$#####$$#####$$####$$####$$+  ",
"  .##$$#####$$#####$$#####$$##+ .$$#####$$#####$$####$$####$$+  ",
"  .%%%%%%%%%%%%%%%%%%%%%%%%%%%+ .%%%%%%%%%%%%%%%%%%%%%%%%%%%%+  ",
"  .@@@@@@@@@@@@@@@@@@@@@@@@@@@+ .@@@@@@@@@@@@@@@@@@@@@@@@@@@@+  ",
"  .##$$#####$$#####$$#####$$##+ .$$#####$$#####$$####$$####$$+  ",
"  .##$$#####$$#####$$#####$$##+ .$$#####$$#####$$####$$####$$+  ",
"  .%%%%%%%%%%%%%%%%%%%%%%%%%%%+ .%%%%%%%%%%%%%%%%%%%%%%%%%%%%+  ",
"  .@@@@@@@@@@@@@@@@@@@@@@@@@@@+ .@@@@@@@@@@@@@@@@@@@@@@@@@@@@+  ",
"  .##$$#####$$#####$$#####$$##+ .$$#####$$#####$$####$$####$$+  ",
"  .##$$#####$$#####$$#####$$##+ .$$#####$$#####$$####$$####$$+  ",
"  .%%%%%%%%%%%%%%%%%%%%%%%%%%%+ .%%%%%%%%%%%%%%%%%%%%%%%%%%%%+  ",
"  .@@@@@@@@@@@@@@@@@@@@@@@@@@@+ .@@@@@@@@@@@@@@@@@@@@@@@@@@@@+  ",
"  .##$$#####$$#####$$#####$$##+ .$$#####$$#####$$####$$####$$+  ",
"  .##$$#####$$#####$$#####$$##+ &****=&#$$#####$$####$$####$$+  ",
"  .%%%%%%%%%%%%%%%%%%%%%%%%%%%+&&&&*-=&;%%%%%%%%%%%%%%%%%%%%%+  ",
"  .@@@@@@@@@@@@@@@@@@@@@@@@@@@&&&&&&-=;&;@@@@@@@@@@@@@@@@@@@@+  ",
"  .##$$#####$$#####$$#####$$##&&&;;;--;&&;#####$$####$$####$$+  ",
"  .##$$#####$$#####$$#####$$##&&;;&----;;&&####$$####$$####$$+  ",
"  .%%%%%%%%%%%%%%%%%%%%%%%%%%%+****&&---===%%%%%%%%%%%%%%%%%%+  ",
"  .@@@@@@@@@@@@@@@@@@@@@@@@@@@+;&****&----=@@@@@@@@@@@@@@@@@@+  ",
"  .##$$#####$$#####$$#####$$##+-;&***&-;&==####$$####$$####$$+  ",
"  .##$$#####$$#####$$#####$$##;--;****&;*==####$$####$$####$$+  ",
"  .%%%%%%%%%%%%%%%%%%%%%%%%%%;;;--;&**;**==%%%%%%%%%%%%%%%%%%+  ",
"  ++++++++++++++++++++++++++&;;;;--;&*;*===+++++++++++++++++++  ",
"                           **&&&;;--=**===                      ",
"  .........................&;***&==@@@===.....................  ",
"  .%%%%%%%%%%%%%%%%%%%%%%%**&&;;==%%%%%%%%%%%%%%%%%%%%%%%%%%%+  ",
"  .@@@@@@@@@@@@@@@@@@@@@@;;;**&==@@@@@@@@@@@@@@@@@@@@@@@@@@@@+  ",
"  .##$$#####$$#####$$###*&&;;===.$$#####$$#####$$####$$####$$+  ",
"  .##$$#####$$#####$$##;;**&==+ .$$#####$$#####$$####$$####$$+  ",
"  .%%%%%%%%%%%%%%%%%%%%&&;;==%+ .%%%%%%%%%%%%%%%%%%%%%%%%%%%%+  ",
"  .@@@@@@@@@@@@@@@@@@@;**&==@@+ .@@@@@@@@@@@@@@@@@@@@@@@@@@@@+  ",
"  .##$$#####$$#####$$*&&===$##+ .$$#####$$#####$$####$$####$$+  ",
"  .##$$#####$$#####$$;*==#$$##+ .$$#####$$#####$$####$$####$$+  ",
"  .%%%%%%%%%%%%%%%%%%===%%%%%%+ .%%%%%%%%%%%%%%%%%%%%%%%%%%%%+  ",
"  .@@@@@@@@@@@@@@@@@@@@@@@@@@@+ .@@@@@@@@@@@@@@@@@@@@@@@@@@@@+  ",
"  .##$$#####$$#####$$#####$$##+ .$$#####$$#####$$####$$####$$+  ",
"  .##$$#####$$#####$$#####$$##+ .$$#####$$#####$$####$$####$$+  ",
"  .%%%%%%%%%%%%%%%%%%%%%%%%%%%+ .%%%%%%%%%%%%%%%%%%%%%%%%%%%%+  ",
"  .@@@@@@@@@@@@@@@@@@@@@@@@@@@+ .@@@@@@@@@@@@@@@@@@@@@@@@@@@@+  ",
"  .##$$#####$$#####$$#####$$##+ .$$#####$$#####$$####$$####$$+  ",
"  .##$$#####$$#####$$#####$$##+ .$$#####$$#####$$####$$####$$+  ",
"  .%%%%%%%%%%%%%%%%%%%%%%%%%%%+ .%%%%%%%%%%%%%%%%%%%%%%%%%%%%+  ",
"  .@@@@@@@@@@@@@@@@@@@@@@@@@@@+ .@@@@@@@@@@@@@@@@@@@@@@@@@@@@+  ",
"  .##$$#####$$#####$$#####$$##+ .$$#####$$#####$$####$$####$$+  ",
"  .##$$#####$$#####$$#####$$##+ .$$#####$$#####$$####$$####$$+  ",
"  .%%%%%%%%%%%%%%%%%%%%%%%%%%%+ .%%%%%%%%%%%%%%%%%%%%%%%%%%%%+  ",
"  .@@@@@@@@@@@@@@@@@@@@@@@@@@@+ .@@@@@@@@@@@@@@@@@@@@@@@@@@@@+  ",
"  .##$$#####$$#####$$#####$$##+ .$$#####$$#####$$####$$####$$+  ",
"  .##$$#####$$#####$$#####$$##+ .$$#####$$#####$$####$$####$$+  ",
"  .%%%%%%%%%%%%%%%%%%%%%%%%%%%+ .%%%%%%%%%%%%%%%%%%%%%%%%%%%%+  ",
"  .@@@@@@@@@@@@@@@@@@@@@@@@@@@+ .@@@@@@@@@@@@@@@@@@@@@@@@@@@@+  ",
"  .##$$#####$$#####$$#####$$##+ .$$#####$$#####$$####$$####$$+  ",
"  .##$$#####$$#####$$#####$$##+ .$$#####$$#####$$####$$####$$+  ",
"  .%%%%%%%%%%%%%%%%%%%%%%%%%%%+ .%%%%%%%%%%%%%%%%%%%%%%%%%%%%+  ",
"  +++++++++++++++++++++++++++++ ++++++++++++++++++++++++++++++  ",
"                                                                "};
