/* XPM */
static char * bug2_xpm[] = {
"64 64 19 1",
" 	c #656565",
".	c #2D2D2D",
"+	c #7D7D7D",
"@	c #797979",
"#	c #0C0C0C",
"$	c #454545",
"%	c #969696",
"&	c #211000",
"*	c #6E3E00",
"=	c #9C5700",
"-	c #B96800",
";	c #FF4A00",
">	c #FF0000",
",	c #CA0202",
"'	c #7F4800",
")	c #000000",
"!	c #8B4F00",
"~	c #FFFFFF",
"{	c #FFFFDA",
"                                                                ",
"  ............................+ .............................+  ",
"  .@@@@@@@@@@@@@@@@@@@@@@@@@@@+ .@@@@@@@@@@@@@@@@@@@@@@@@@@@@+  ",
"  .##$$#####$$#####$$#####$$##+ .$$#####$$#####$$####$$####$$+  ",
"  .##$$#####$$#####$$#####$$##+ .$$#####$$#####$$####$$####$$+  ",
"  .%%%%%%%%%%%%%%%%%%%%%%%%%%%+ &&&%%%%%%%%%%%%%%%%%%%%%%%%%%+  ",
"  .@@@@@@@@@@@@@@@@@@@@@@@@@@@&&&&&&@@@@@@@@@@@@@@@@@@@@@@@@@+  ",
"  .##$$#####$$#&&&#$$#####$$#&&&&$&&&###$$#####$$####$$####$$+  ",
"  .##$$#####$&&&&&&$$#####$$&&&&.$$&&###$$#####$$####$$####$$+  ",
"  .%%%%%%%%%&&&&&&&&&%%%%%%%&&& .%%&&%%%%%%%%%%%%%%%%%%%%%%%%+  ",
"  .@@@@@@@@&&&&@&&&&&@@@@@@&&&& .@@&@@@@@@@@@@@@@@@@@@@@@@@@@+  ",
"  .##$$####&&$####&&&&####$&&&& .$$#####$$#&&&&$$####$$####$$+  ",
"  .##$$####&$$#####&&&&###$&&&& .$$#####$&&&&##$$####$$####$$+  ",
"  .%%%%%%%#&%%%%%%%&&&&&%%%&&&&&.%%%%%%%&&&&%%%%%%%%%%%%%%%%%+  ",
"  .@@@@@@@@@@@@@@@@@&&&&&**&&&&&***@@@@&&&&@@@@@@@@@@@@@@@@@@+  ",
"  .##$$#####$$#####$&&&&&&==&&&&===*##&&&&#####$$####$$####$$+  ",
"  .##$$#####$$#####$$&&&&&==&&&&===**&&&&$#####$$####$$####$$+  ",
"  .%%%%%%%%%%%%%%%%%*&&&&&===&&======*&&%%%%%%%%%%%%%%%%%%%%%+  ",
"  .@@@@@@@@@@@@@@@@*==&&&---------====*&@@@@@@@@@@@@@@@@@@@@@+  ",
"  .##$$#####$$####*===----------;>,====*$$#####$$####$$####$$+  ",
"  .##$$#####$$####*=;>,--------;>;>,====*$#####$$####$$####$$+  ",
"  .%%%%%%%%%%%%%%*=;>;>,------;>;>;>,===*%%%%%%%%%%%%%%%%%%%%+  ",
"  .@@@@@@@@@@@@@*=;>;>;>,----->;>;>;,-===*@@@@@&&&@@@@@@@@@@@+  ",
"  .##$$#####$$##*=>;>;>;,-----;>;>;>,-===*##&&&&&&&&#$$####$$+  ",
"  .##$$#####$$##*=;>;>;>,------;>;>,--====*&&&&$$##&&&$####$$+  ",
"  .%%%%%%%%%%%%%*==;>;>,--------;>,--'''''*&&%%%%%%%%%%%%%%%%+  ",
"  .@@@@@@@@@@@@@*'==;>,-------------'====''&@@@@@@@@@@@@@@-@@+  ",
"  .##$$#####$$##-''==------'''-----'==--=='####$$####$$##-'$$+  ",
" -.##$$#####$$##-='''=----')))'----'=----=''###$$####$$#-'#$$+  ",
" --'%%%%%%%%%%%--===''=--')))))'---'==---=='%%%%%%%%%%--'%%%%+  ",
"  --!'+++++++++-====='=--'~)))~'-=='===---=''+++++++--''++++++  ",
"   ---!'      --====='===-{{){{----='===--=''     ---''         ",
"  ..---=''....-======'=----'''------='===-==''..---!''........  ",
"  .%%---===''--====='==-------------=='======''--==''%%%%%%%%+  ",
"  .@@@---====''===='''==----------====''====='--==''@@@@@@@@@+  ",
"  .##$$#---=======''$#'===========--==''&====--==''##$$####$$+  ",
"  .##$$##----====='$$##'=-----------='''&&======''###$$####$$+  ",
"  .%%%%%%%----==='%%%%%%==----------'=''%&&'===''%%%%%%%%%%%%+  ",
"  .@@@@@@@@--===='@@@@@@'=---------=-=='@@@@'=''@@@@@@@@@@@@@+  ",
"  .##$$#####$====##$$####==========--==''$###''&&####$$####$$+  ",
"  .##$$#####$$==###$$####=------------=='$#####$&&###$$####$$+  ",
"  .%%%%%%%%%%%%%%%%%%%%%-===---===----==''%%%%%%%&%%%%%%%%%%%+  ",
"  .@@@@@@@@@@@@@@@-'@@@=--------------='=''@@@@@@@==='@@@@@@@+  ",
"  .##$$#####$$###--!!##'=----------===-==''####$===-=''####$$+  ",
"  .##$$#####$$##--!!!'=============----===''##===--='''####$$+  ",
"  .%%%%%%%%%%%%---=-!!==-----------=--=''''===----=='''%%%%%%+  ",
"  .@@@@@@@@@@@@-===--'==------------=='=='==------=''=''@@@@@+  ",
"  .##$$#####$$-==='=-'''====----------==='=-----==='-=='###$$+  ",
"  .##$$#####$-===''=-'===---=---------='''=----===''-==''##$$+  ",
"  .%%%%%%%%%%-=='%%'='''==---===---==='=='==---==''%--=='%%%%+  ",
"  .@@@@@@@@@-=='@@@'''==''=========---===''=====''@@@-=='@@@@+  ",
"  .##$$#####-='####$''!!===----------====='=====''###$=='##$$+  ",
"  .##$$####-='#####$$'''====-------======'''==='''###$-=''#$$+  ",
"  .%%%%%%%-=='%%%%%%%%'''===============''''''''%%%%%%%-='%%%+  ",
"  .@@@@@@-==@@@@@@@@@@@@@''''''''''''''''''@@@@@@@@@@@@@='@@@+  ",
"  .##$$#-!##$$#####$$#####$$##+ .$$#####$$#####$$####$$#-!'$$+  ",
"  .##$$#####$$#####$$#####$$##+ .$$#####$$#####$$####$$##-!$$+  ",
"  .%%%%%%%%%%%%%%%%%%%%%%%%%%%+ .%%%%%%%%%%%%%%%%%%%%%%%%%-%%+  ",
"  .@@@@@@@@@@@@@@@@@@@@@@@@@@@+ .@@@@@@@@@@@@@@@@@@@@@@@@@@@@+  ",
"  .##$$#####$$#####$$#####$$##+ .$$#####$$#####$$####$$####$$+  ",
"  .##$$#####$$#####$$#####$$##+ .$$#####$$#####$$####$$####$$+  ",
"  .%%%%%%%%%%%%%%%%%%%%%%%%%%%+ .%%%%%%%%%%%%%%%%%%%%%%%%%%%%+  ",
"  +++++++++++++++++++++++++++++ ++++++++++++++++++++++++++++++  ",
"                                                                "};
