/* XPM */
static char * pg1_xpm[] = {
"64 64 24 1",
" 	c #656565",
".	c #2D2D2D",
"+	c #7D7D7D",
"@	c #797979",
"#	c #0C0C0C",
"$	c #454545",
"%	c #101010",
"&	c #202020",
"*	c #969696",
"=	c #141414",
"-	c #181818",
";	c #050610",
">	c #3D3D3D",
",	c #0D0E28",
"'	c #080918",
")	c #F3EA44",
"!	c #969023",
"~	c #F72200",
"{	c #69651A",
"]	c #BA1A00",
"^	c #0048C2",
"/	c #0057EB",
"(	c #8A1502",
"_	c #DBD338",
"                                                                ",
"  ............................+ .............................+  ",
"  .@@@@@@@@@@@@@@@@@@@@@@@@@@@+ .@@@@@@@@@@@@@@@@@@@@@@@@@@@@+  ",
"  .##$$#####$$#####$$#####$$%&&&&&&&&&##$$#####$$####$$####$$+  ",
"  .##$$#####$$#####$$#####$%&&&&&&&&&&&#$$#####$$####$$####$$+  ",
"  .************************%&&&&&&&&&&&**********************+  ",
"  .@@@@@@@@@@@@@@@@@@@@@@@@=--&;;;;;;;;&@@@@@@@@@@@@@@@@@@@@@+  ",
"  .##$$#####$$#####$$#####==->&;,,,,,,'>$$#####$$####$$####$$+  ",
"  .##$$#####$$#####$$#####==--&;,,,,,,'&$$#####$$####$$####$$+  ",
"  .***********************==->&;,,,,,,'>*********************+  ",
"  .@@@@@@@@@@@@@@@@@@@@@@>@=--&&;,,,,,'&@@@@@@@@@@@@@@@@@@@@@+  ",
"  .##$$#####$$#####$$####>$%&&&&&;,,,'&#$$#####$$####$$####$$+  ",
"  .##$$#####$$#####$$###&&&%&&=--&&&&=--$$#####$$####$$####$$+  ",
"  .*******************-%))!%&=----&&=----********************+  ",
"  .@@@@@@@@@@@@@@@@@@&&-%~~%&=----&&=----@@@@@@@@@@@@@@@@@@@@+  ",
"  .##$$#####$$#####$$)&&-%~%%&=--&&&&=--{$#####$$####$$####$$+  ",
"  .##$$#####$$#####$$~~&&-%~&%%%%%%%%%~]%{#####$$####$$####$$+  ",
"  .*****************~~~~&&-%~&&&&&&&&~~~]%*******************+  ",
"  .@@@@@@@@@@@@@@@@~~~~~~&&-%]~~~~~~~~~]]-%@@@@@@@@@@@@@@@@@@+  ",
"  .##$$#####$$####~~~~~~~~&--%]~~~~^^^^^~-%####$$####$$####$$+  ",
"  .##$$#####$$###~~~~~~~~~~&-%]~~~~/////~-%####$$####$$####$$+  ",
"  .**************~~~~~~]~~~~&-%]~~~~~~~~&-(******************+  ",
"  .@@@@@@@@@@@@@~~~~~~]]~~~~&-%]~~~__~_&-%(@@@@@@@@@@@@@@@@@@+  ",
"  .##$$#####$$##~~~~~]_]~~~~~&-%]~~_~_&-%((####$$####$$####$$+  ",
"  .##$$#####$$##~~~]]]_]~~~~~&--%]~~&--%]((####$$####$$####$$+  ",
"  .************~~~~~])_]]~~~~~&--%&&-%%]]((******************+  ",
"  .@@@@@@@@@@@@~~~~]])_]]]~~~~~&--%-%]~]](((@@@@@@@@@@@@@@@@@+  ",
"  .##$$#####$$#~~~~~])_]]~~~~~~%&--%]~~]((((###$$####$$####$$+  ",
"  .##$$#####$$#~~~~]))_]]]~~~&&-%&--]~]]((((]##$$####$$####$$+  ",
"  .************~~~~]))_&&&&&&--%%]&-%]~](((]]****************+  ",
"  +++++++++++++~~~~~]&&---%%%%%]]~~&-%]]((]]]]++++++++++++++++  ",
"               ~~~~]]---%%]]]]]~~~~~&-%_((]~~]                  ",
"  .............~~~~]]%%%]]~~~~~~~~~~~&%_(]~~~]................  ",
"  .*************~~~~]>>>]~~~~~~~~~~~~]&&&~~~~~]**************+  ",
"  .@@@@@@@@@@@@@~~~&--&&]]~~~~~~~~~~]]&&&~~~&&-@@@@@@@@@@@@@@+  ",
"  .##$$#####$$##~~&&&---&&&~~~~~~~~~&-%--%~&-&&%$####$$####$$+  ",
"  .##$$#####$$###&&&&&-----&&&&&&&&--%%-%%&-&-&%$####$$####$$+  ",
"  .**************&&&&%%~~~--------%%%~]%%*-&-&-%*************+  ",
"  .@@@@@@@@@@@@@@@&&%%@~~~~~~~~~~~~~~~]@@@@-&-%@@@@@@@@@@@@@@+  ",
"  .##$$#####$$#####%%#~~~~~~~~~~~~~~~~~]$$##%%#$$####$$####$$+  ",
"  .##$$#####$$#####$$#~~~~~~~]]]]~~~~~]]$$#####$$####$$####$$+  ",
"  .*******************~~~~~~]]+ (]~~~~~]*********************+  ",
"  .@@@@@@@@@@@@@@@@@@~~~~~~]]@+ .(]]~~~~]@@@@@@@@@@@@@@@@@@@@+  ",
"  .##$$#####$$#####$$~~~~~~]]#+ .$((]~~~]$#####$$####$$####$$+  ",
"  .##$$#####$$#####$$~~~~~]]##+ .$(]~~~~]$#####$$####$$####$$+  ",
"  .******************~~~~~]]**+ .**(]~~~]********************+  ",
"  .@@@@@@@@@@@@@@@@@~~~~~]]@@@+ .@@(]~~]]@@@@@@@@@@@@@@@@@@@@+  ",
"  .##$$#####$$#####$~~~~~]$$##+ .$$#(]~~]]#####$$####$$####$$+  ",
"  .##$$#####$$#####$~~~~]]$$##+ .$$#(]~~~]#####$$####$$####$$+  ",
"  .*****************~~~~]]****+ .***((]~~]*******************+  ",
"  .@@@@@@@@@@@@@@@@@~~~~~]@@@@+ .@@@(]~~~~]@@@@@@@@@@@@@@@@@@+  ",
"  .##$$#####$$#####~~~~~]]$$##+ .$$#(]]~~]]####$$####$$####$$+  ",
"  .##$$#####$$#####~~~~~]]$$##+ .$$##(]~~]]####$$####$$####$$+  ",
"  .****************~~~~~]*****+ .****((]~~]******************+  ",
"  .@@@@@@@@@@@@@@@@~~~~]]@@@@@+ .@@@@((]~~]@@@@@@@@@@@@@@@@@@+  ",
"  .##$$#####$$#####~~~~]]#$$##+ .$$##(]~~~]####$$####$$####$$+  ",
"  .##$$#####$$#####&&&~~]#$$##+ .$$##((]~&&&###$$####$$####$$+  ",
"  .***************&&&---%*****+ .*****%---&&&****************+  ",
"  .@@@@@@@@@@@@@@&&&---%%@@@@@+ .@@@@@%%---&&&@@@@@@@@@@@@@@@+  ",
"  .##$$#####$$###-----%%%#$$##+ .$$###%%%-----#$$####$$####$$+  ",
"  .##$$#####$$#####$$#####$$##+ .$$#####$$#####$$####$$####$$+  ",
"  .***************************+ .****************************+  ",
"  +++++++++++++++++++++++++++++ ++++++++++++++++++++++++++++++  ",
"                                                                "};
