/* XPM */
static char * exitc_xpm[] = {
"64 64 10 1",
" 	c #656565",
".	c #2D2D2D",
"+	c #7D7D7D",
"@	c #797979",
"#	c #0C0C0C",
"$	c #454545",
"%	c #969696",
"&	c #610000",
"*	c #DF0000",
"=	c #FFFFFF",
"                                                                ",
"  ............................+ .............................+  ",
"  .@@@@@@@@@@@@@@@@@@@@@@@@@@@+ .@@@@@@@@@@@@@@@@@@@@@@@@@@@@+  ",
"  .##$$#####$$#####$$#####$$##+ .$$#####$$#####$$####$$####$$+  ",
"  .##$$#####$$#####$$#####$$##+ .$$#####$$#####$$####$$####$$+  ",
"  .%%%%%%%%%%%%%%%%%%%%%%%%%%%+ .%%%%%%%%%%%%%%%%%%%%%%%%%%%%+  ",
"  .@@@@@@@@@@@@@@@@@@@@@@@@@@@+ .@@@@@@@@@@@@@@@@@@@@@@@@@@@@+  ",
"  .##$$#####$$#####$$#####$$##+ .$$#####$$#####$$####$$####$$+  ",
"  .##$$#####$$#####$$#####$$##+ .$$#####$$#####$$####$$####$$+  ",
"  .%%%%%%%%%%%%%%%%%%%%%%%%%%%+ .%%%%%%%%%%%%%%%%%%%%%%%%%%%%+  ",
"  .@@@@@@@@@@@@@...............................@@@@@@@@@@@@@@+  ",
"  .##$$#####$$...                             ...####$$####$$+  ",
"  .##$$#####$..   ++++%%%+++++++++++++%%%++++   ..###$$####$$+  ",
"  .%%%%%%%%%..  +++&&%.%.%&&&&&&&&&&&%.%.%&&+++  ..%%%%%%%%%%+  ",
"  .@@@@@@@@..  ++&&&* +%+ *********** +%+ *&&&++  ..@@@@@@@@@+  ",
"  .##$$####.  ++&&****   *************   ****&&++  ..$$####$$+  ",
"  .##$$###.. ++&&*****************************&&++ ..$$####$$+  ",
"  .%%%%%%%.  +&&*******************************&&+  .%%%%%%%%+  ",
"  .@@@@@@@. ++&*********************************&++ .@@@@@@@@+  ",
"  .##$$###. +&&*********************************&&+ .$$####$$+  ",
"  .##$$###. +&***********************************&+ .$$####$$+  ",
"  .%%%%%%%. +&***********************************&+ .%%%%%%%%+  ",
"  .@@@@@@@. +&***********************************&+ .@@@@@@@@+  ",
"  .##$$###. +&***********************************&+ .$$####$$+  ",
"  .##$$###. +&***********************************&+ .$$####$$+  ",
"  .%%%%%%%. +&***********************************&+ .%%%%%%%%+  ",
"  .@@@@@@@. +&**=======***=*****=***=***=======**&+ .@@@@@@@@+  ",
"  .##$$###. +&**=**********=***=****=******=*****&+ .$$####$$+  ",
"  .##$$###. +&**=**********=***=****=******=*****&+ .$$####$$+  ",
"  .%%%%%%%. +&**=***********=*=*****=******=*****&+ .%%%%%%%%+  ",
"  ++++++++. +&**=***********=*=*****=******=*****&+ .+++++++++  ",
"          . +&**====*********=******=******=*****&+ .           ",
"  ......... +&**=***********=*=*****=******=*****&+ ..........  ",
"  .%%%%%%%. +&**=***********=*=*****=******=*****&+ .%%%%%%%%+  ",
"  .@@@@@@@. +&**=**********=***=****=******=*****&+ .@@@@@@@@+  ",
"  .##$$###. +&**=**********=***=****=******=*****&+ .$$####$$+  ",
"  .##$$###. +&**=======***=*****=***=******=*****&+ .$$####$$+  ",
"  .%%%%%%%. +&***********************************&+ .%%%%%%%%+  ",
"  .@@@@@@@. +&***********************************&+ .@@@@@@@@+  ",
"  .##$$###. +&***********************************&+ .$$####$$+  ",
"  .##$$###. +&***********************************&+ .$$####$$+  ",
"  .%%%%%%%. +&***********************************&+ .%%%%%%%%+  ",
"  .@@@@@@@. +&***********************************&+ .@@@@@@@@+  ",
"  .##$$###. +&&*********************************&&+ .$$####$$+  ",
"  .##$$###. ++&*********************************&++ .$$####$$+  ",
"  .%%%%%%%.  +&&*******************************&&+  .%%%%%%%%+  ",
"  .@@@@@@@.. ++&&*****************************&&++ ..@@@@@@@@+  ",
"  .##$$####.  ++&&***************************&&++  .#$$####$$+  ",
"  .##$$####..  ++&&&***********************&&&++  ..#$$####$$+  ",
"  .%%%%%%%%%..  +++&&&&&&&&&&&&&&&&&&&&&&&&&+++  ..%%%%%%%%%%+  ",
"  .@@@@@@@@@@..   +++++++++++++++++++++++++++   ..@@@@@@@@@@@+  ",
"  .##$$#####$$...                             ...####$$####$$+  ",
"  .##$$#####$$##...............................$$####$$####$$+  ",
"  .%%%%%%%%%%%%%%%%%%%%%%%%%%%+ .%%%%%%%%%%%%%%%%%%%%%%%%%%%%+  ",
"  .@@@@@@@@@@@@@@@@@@@@@@@@@@@+ .@@@@@@@@@@@@@@@@@@@@@@@@@@@@+  ",
"  .##$$#####$$#####$$#####$$##+ .$$#####$$#####$$####$$####$$+  ",
"  .##$$#####$$#####$$#####$$##+ .$$#####$$#####$$####$$####$$+  ",
"  .%%%%%%%%%%%%%%%%%%%%%%%%%%%+ .%%%%%%%%%%%%%%%%%%%%%%%%%%%%+  ",
"  .@@@@@@@@@@@@@@@@@@@@@@@@@@@+ .@@@@@@@@@@@@@@@@@@@@@@@@@@@@+  ",
"  .##$$#####$$#####$$#####$$##+ .$$#####$$#####$$####$$####$$+  ",
"  .##$$#####$$#####$$#####$$##+ .$$#####$$#####$$####$$####$$+  ",
"  .%%%%%%%%%%%%%%%%%%%%%%%%%%%+ .%%%%%%%%%%%%%%%%%%%%%%%%%%%%+  ",
"  +++++++++++++++++++++++++++++ ++++++++++++++++++++++++++++++  ",
"                                                                "};
