/* XPM */
static char * wall_xpm[] = {
"64 64 8 1",
" 	c #929292",
".	c #5D5C5C",
"+	c #2D2D2D",
"@	c #141414",
"#	c #0C0C0C",
"$	c #7D7D7D",
"%	c #393939",
"&	c #181818",
"                                                                ",
" .............................................................. ",
" .++++++++++++++++++++++++++++++++++++++++++++++++++++++++++++. ",
" .++++++++++++++++++++++++++++++++++++++++++++++++++++++++++++. ",
" .@@@@@@@@@@@@@@@@@@@@@@@@@@@@@@@@@@@@@@@@@@@@@@@@@@@@@@@@@@@@. ",
" .############################################################. ",
" .############################################################. ",
" .############################################################. ",
" .############################################################. ",
" .############################################################. ",
" .############################################################. ",
" .############################################################. ",
" .############################################################. ",
" .############################################################. ",
" .############################################################. ",
" .############################################################. ",
" .############################################################. ",
" .############################################################. ",
" .############################################################. ",
" .############################################################. ",
" .############################################################. ",
" .############################################################. ",
" .############################################################. ",
" .############################################################. ",
" .############################################################. ",
" .############################################################. ",
" .############################################################. ",
" .############################################################. ",
" .############################################################. ",
" .++++++++++++++++++++++++++++++++++++++++++++++++++++++++++++. ",
" .............................................................. ",
"                                                                ",
"$$$$$$$$$$$$$$$$$$$$$$$$$$$$$$$$$$$$$$$$$$$$$$$$$$$$$$$$$$$$$$$$",
"$$$$$$$$$$$$$$$$$$$$$$$$$$$$$$$$$$$$$$$$$$$$$$$$$$$$$$$$$$$$$$$$",
"$$$$$$$$$$$$$$$$$$$$$$$$$$$$$$$$$$$$$$$$$$$$$$$$$$$$$$$$$$$$$$$$",
"................................................................",
"%%%%%%%%%%%%%%%%%%%%%%%%%%%%%%%%%%%%%%%%%%%%%%%%%%%%%%%%%%%%%%%%",
"%&%%%%%%%%%%%%%%%%%%&%%%%%%%%%%%%%%%%%%%%%%&%%%%%%%%%%%%%%%%%%&%",
"%%%%%%%%%%%%%%%%%%%%%%%%%%%%%%%%%%%%%%%%%%%%%%%%%%%%%%%%%%%%%%%%",
"................................................................",
"                                                                ",
"$$$$$$$$$$$$$$$$$$$$$$$$$$$$$$$$$$$$$$$$$$$$$$$$$$$$$$$$$$$$$$$$",
"$$$$$$$$$$$$$$$$$$$$$$$$$$$$$$$$$$$$$$$$$$$$$$$$$$$$$$$$$$$$$$$$",
"$$$$$$$$$$$$$$$$$$$$$$$$$$$$$$$$$$$$$$$$$$$$$$$$$$$$$$$$$$$$$$$$",
"................................................................",
"%%%%%%%%%%%%%%%%%%%%%%%%%%%%%%%%%%%%%%%%%%%%%%%%%%%%%%%%%%%%%%%%",
"%&%%%%%%%%%%%%%%%%%%&%%%%%%%%%%%%%%%%%%%%%%&%%%%%%%%%%%%%%%%%%&%",
"%%%%%%%%%%%%%%%%%%%%%%%%%%%%%%%%%%%%%%%%%%%%%%%%%%%%%%%%%%%%%%%%",
"................................................................",
"                                                                ",
"$$$$$$$$$$$$$$$$$$$$$$$$$$$$$$$$$$$$$$$$$$$$$$$$$$$$$$$$$$$$$$$$",
"$$$$$$$$$$$$$$$$$$$$$$$$$$$$$$$$$$$$$$$$$$$$$$$$$$$$$$$$$$$$$$$$",
"$$$$$$$$$$$$$$$$$$$$$$$$$$$$$$$$$$$$$$$$$$$$$$$$$$$$$$$$$$$$$$$$",
"................................................................",
"%%%%%%%%%%%%%%%%%%%%%%%%%%%%%%%%%%%%%%%%%%%%%%%%%%%%%%%%%%%%%%%%",
"%&%%%%%%%%%%%%%%%%%%&%%%%%%%%%%%%%%%%%%%%%%&%%%%%%%%%%%%%%%%%%&%",
"%%%%%%%%%%%%%%%%%%%%%%%%%%%%%%%%%%%%%%%%%%%%%%%%%%%%%%%%%%%%%%%%",
"................................................................",
"                                                                ",
"$$$$$$$$$$$$$$$$$$$$$$$$$$$$$$$$$$$$$$$$$$$$$$$$$$$$$$$$$$$$$$$$",
"$$$$$$$$$$$$$$$$$$$$$$$$$$$$$$$$$$$$$$$$$$$$$$$$$$$$$$$$$$$$$$$$",
"$$$$$$$$$$$$$$$$$$$$$$$$$$$$$$$$$$$$$$$$$$$$$$$$$$$$$$$$$$$$$$$$",
"$$$$$$$$$$$$$$$$$$$$$$$$$$$$$$$$$$$$$$$$$$$$$$$$$$$$$$$$$$$$$$$$",
"................................................................"};
