/* XPM */
static char * Muro E_xpm[] = {
"64 64 6 1",
" 	c #BFBFBF",
".	c #9D9D9D",
"+	c #7A7A7A",
"@	c #6F6F6F",
"#	c #7E7E7E",
"$	c #949494",
"               ..                              ..               ",
"                 ..                          ..                 ",
"                   ..                      ..                   ",
"                     ..      +....+      ..                     ",
"                       ++...+.++++.+...++                       ",
"             ............+++++.++.+++++............             ",
".         ...@+++++++++++....++..++....++++++++++++...         .",
" ..    ...+++@@+++++++++++++..++++..++++++++++++++++@+...    .. ",
"   .  .+++++++##$$$$$$$$$$$++++++++++#$$$$$$$$$$$$+@@++++.  .   ",
"    ..+++++$$$$$##$$$$$$$$##$$$$$$$$$$#$$$$$$$$$$$##$+++++..    ",
"    .+++$$$$$$$$$##$$$$$###$$$$$$$$$$$###$$$$$$$$##$$$$$+++.    ",
"    .++$$$$$$$$$$$##$$###$$$$$$$$$$$$$$$##$$$$####$$$$$$$++.    ",
"    .++$$$$$$$$$$$$####$$$$$$$$$$$$$$$$$$######$$$$$$$$$$++.    ",
"    .++$$$$$$$$$$$$$##$$$$$$$$$$$$$$$$$$$##$$$###$$$$$$$$++.    ",
"    .++$$$$$$$$$$$$$$#$$$$$$$$$$$$$$$$$$##$$$$$$###$$$$$$++.    ",
"  ..+++$$$$$$$$$$$$$###$$$$$$$$$$$$$$$###$$$$$$$$$####$$$+++..  ",
".. .+++$$$$$$$$$$$###$##$$$$$$$$$$$$$$#$$$$$$$$$$$$$$####@@@. ..",
"   .++$$$$$$$$$####$$$$##$$$$$$$$$$$$##$$$$$$$$$$$$$$$$#$$++.   ",
"   .++$$$$$#####$$$$$$$$##$$$$$$$$$$$#$$$$$$$$$$$$$$$$$#$$++.   ",
"   .@@#####$$$$$$$$$$$$$$###$$$$$$$$$#$$$$$$$$$$$$$$$$$#$$++.   ",
"   .++$#$$$$$$$$$$$$$$$$$$$###########$$$$$$$$$$$$$$$$$#$$++.   ",
"   .++$#$$$$$$$$$$$$$$$$$$$#$$$$$$$$$$##$$$$$$$$$$$$$$$#$$++.   ",
"   .++$##$$$$$$$$$$$$$$$$$##$$$$$$$$$$$###$$$$$$$$$$$$$#$$++.   ",
"   .++$$#$$$$$$$$$$$$$$$$$#$$$$$$$$$$$$$$$###$$$$$$$$$##$$++.   ",
"   .++$$$#$$$$$$$$$$$$$$$##$$$$$$$$$$$$$$$$$###$$$$$$$#$$$++.   ",
"   .++$$$##$$$$$$$$$$$$$$#$$$$$$$$$$$$$$$$$$$$$#########$$++.   ",
"   .++$$$$##$$$$$$$$$$$$##$$$$$$$$$$$$$$$$$$$$$$$$#$$$$##$++.   ",
"   .++$$$$$#$$$$$$$$$$####$$$$$$$$$$$$$$$$$$$$$$$##$$$$$##@@.   ",
"   .++$$$$$##$$$$$$$###$$###$$$$$$$$$$$$$$$$$$$$##$$$$$$$$++.   ",
"   .++$$$$$$#$$$$$###$$$$$$####$$$$$$$$$$$$$$$$##$$$$$$$$$++.   ",
" ..+++$$$$$$##$$###$$$$$$$$$$$##$$$$$$$$$$$$$$##$$$$$$$$$$+++.. ",
". .++$$$$$$$$####$$$$$$$$$$$$$$##$$$$$$$$$$$$##$$$$$$$$$$$$++. .",
"  .++$$$$$$$$##$$$$$$$$$$$$$$$$$##$$$$$$$$$##$$$$$$$$$$$$$$++.  ",
"  .++$$$$$$$$$#$$$$$$$$$$$$$$$$$$#$$$$$$$###$$$$$$$$$$$$$$$++.  ",
"  .++$$$$$$$$$##$$$$$$$$$$$$$$$$$$########$##$$$$$$$$$$$$$$++.  ",
"  .++$$$$$$$$$##$$$$$$$$$$$$$$$$$#$$$$$$$$$$$###$$$$$$$$$$$++.  ",
"  .@+$$$$$$$$#$###$$$$$$$$$$$$$$$#$$$$$$$$$$$$$#$$$$$$$$$$$++.  ",
"  .@@$$$$$$$$#$$$#####$$$$$$$$$$##$$$$$$$$$$$$$##$$$$$$$$$$++.  ",
"  .++#$$$$$$##$$$$$$$##$$$$$$$$##$$$$$$$$$$$$$$$##$$$$$$$$$+@.  ",
"  .++##$$$$$#$$$$$$$$$###$$$$$$#$$$$$$$$$$$$$$$$$#$$$$$$$$#@@.  ",
"  .++$#$$$$##$$$$$$$$$$$#########$$$$$$$$$$$$$$$$##########++.  ",
"  .++$##$$$#$$$$$$$$$$$$$$$$$$$####$$$$$$$$$$$$$##$$$$##$$$++.  ",
"  .++$$##$##$$$$$$$$$$$$$$$$$$$#$$##$$$$$$$$$$$$#$$$$$$#$$$++.  ",
"  .+++$$$##$$$$$$$$$$$$$$$$$$$$#$$$##$$$$$$$$$$$#$$$$$$##$+++.  ",
".. .++$$$$##$$$$$$$$$$$$$$$$$$##$$$$##$$$$$$$$$##$$$$$$$#$++. ..",
"   .++$$$$#################$$$#$$$$$$##$$$$$$###$$$$$$$$##++.   ",
"   .++$$$$$$#$$$$$$$$$$$$$$##$#$$$$$$$##$$####$$$$$$$$$$$#@@.   ",
"   .++$$$$$$##$$$$$$$$$$$$$$###$$$$$$$$###$#$$$$$$$$$$$$$$+@.   ",
"   .++$$$$$$$#$$$$$$$$$$$$$$$##$$$$$$$$$$$$##$$$$$$$$$$$$$++.   ",
"   .++$$$$$$$##$$$$$$$$$$$$$$#$$$$$$$$$$$$$$#$$$$$$$$$$$$$++.   ",
"   .@@#$$$$$$$#$$$$$$$$$$$$$##$$$$$$$$$$$$$$##$$$$$$$$$$$$++.   ",
"   .++#########$$$$$$$$$$$$$#$$$$$$$$$$$$$$$$#$$$$$$$$$$$#@@.   ",
"   .++$$$$$$$$##$$$$$$$$$$$####$$$$$$$$$$$$$$#$$$$$$$$$###++.   ",
"   .++$$$$$$$$$#$$$$$$$$$$##$$##$$$$$$$$$$$$$##$$$$$$$##$$++.   ",
"   .++$$$$$$$$$##$$$$$$$$##$$$$##$$$$$$$$$$$$$#$$$$$###$$$++.   ",
"   .++$$$$$$$$$$##$$$$$$##$$$$$$##$$$$$$$$$$$$##$$$##$$$$$++.   ",
"   .++$$$$$$$$$$$##$$$$$#$$$$$$$$##$$$$$$$$$$$$#$###$$$$$$++.   ",
"   .++$$$$$$$$$$$$##$$$##$$$$$$$$$#$$$$$$$$$$$$###$$$$$$$$++.   ",
"   . ++$$$$$$$$$$$$#####$$$$$$$$$$##$$$$$$$$######$$$$$$$++ .   ",
"  .  +++$$$$$$$$$$$$##$$$$$$$$$$$$$##$$$$####$$$$##$$$$$+++  .  ",
"..    +++$$$$$$$$$$$#$$$$$$$$$$$$$$$#####$$$$$$$$$##$$$+++    ..",
"     . +++$$$$$$$$$##$$$$$$$$$$$$$$$$##$$$$$$$$$$$$#$$+++ .     ",
"    .   +++$$$$$$$$#$$$$$$$$$$$$$$$$$$#$$$$$$$$$$$$##+++   .    ",
"....     +++$$$$$$##$$$$$$$$$$$$$$$$$$#$$$$$$$$$$$$$@@+     ...."};
