/* XPM */
static char * Muro N_xpm[] = {
"64 64 71 1",
" 	c #FD6601",
".	c #993D00",
"+	c #D05300",
"@	c #431B00",
"#	c #3C1E0A",
"$	c #F9E0CF",
"%	c #4A7E91",
"&	c #053200",
"*	c #1E5F17",
"=	c #8BA092",
"-	c #C6F6D6",
";	c #343E7F",
">	c #283376",
",	c #0C7A00",
"'	c #0A5F01",
")	c #745D5A",
"!	c #4B0000",
"~	c #01061D",
"{	c #4E4543",
"]	c #6F0000",
"^	c #293B99",
"/	c #14205C",
"(	c #733796",
"_	c #8D49B4",
":	c #694228",
"<	c #71B4CD",
"[	c #6E631C",
"}	c #FDF9DA",
"|	c #291507",
"1	c #998925",
"2	c #B389CB",
"3	c #8B44B4",
"4	c #4E270D",
"5	c #C2AA0D",
"6	c #E5C80E",
"7	c #051A4B",
"8	c #000E2E",
"9	c #D0D0D0",
"0	c #200D00",
"a	c #2C1200",
"b	c #BD6B00",
"c	c #343434",
"d	c #666666",
"e	c #897C22",
"f	c #35003D",
"g	c #590066",
"h	c #BD4C00",
"i	c #B4B4B4",
"j	c #063F00",
"k	c #3A1700",
"l	c #542D12",
"m	c #A265C5",
"n	c #684D77",
"o	c #605719",
"p	c #042300",
"q	c #0D1640",
"r	c #3A2724",
"s	c #37312F",
"t	c #4C322E",
"u	c #846297",
"v	c #374E3F",
"w	c #074900",
"x	c #4D6C58",
"y	c #834A00",
"z	c #050505",
"A	c #4C4C4C",
"B	c #5F5F5F",
"C	c #3A0000",
"D	c #365F6E",
"E	c #9372A6",
"F	c #260F00",
"                                                                ",
"................................................................",
"+ @@@@@@@@@@@@@@@@#$$#%$%@@@&**&=-=@@@@@@@@@@@;>,')))=-=!!!~~~ +",
"+ @@@@@@@@@@@!@@@@####%%%@@@&**&=-=@@@@@@@@@@@;>,'){)=-=]!]^^/ +",
"+ (___((___(]!!@@@::::<<<[}[////=-=@@@@@@@@@@@;>,'){)=-=]!]^/^ +",
". ((______((]]!!@@####<<<[[[////=-=|#||||||#|@;>,')))=-=]!]^/^ .",
". ((((((((((]]]!!@::::<<<111&**&=-=|#||||||#|@;>,'){)=-=!!!/^^ .",
". 2333223332@]]]!!####%%%111&**&=-=|#||||||#|@;>,'){)=-=]!]^// .",
". 2333223332..]]]!####%%%111////=-=@4@@@@@@4@.;>,')))=-=]!]^^/ .",
"+ @4@@@@@@4@...]]]::::<<<[[[////=-=@4@@@@@@4@.;>,'){)=-=]!]^/^ +",
"+ @4@@@@@@4@....]]####%%%...&**&=-=@4@@@@@@4@.;>,'){)=-=!!!~~~ +",
"+ @4@@@@@@4@++++++++++++++++++++++++++++++++++++++)))+++++++++ +",
"+                                                              +",
". 565-=78@@@@@@@@@)))999@@@@@@@@@@@@@@@@@@0a0bbb=-cde6[1fg'']] .",
". 565-=78@@@@@@@@@){)-9-@@@@@@@@@@@@@@@@@@0a0bhb=-cde6[1fg,,!! .",
". i9i-=78@jjjjjjjj){)-9-@@@@@@@@@jjj5jjj@@0a0bhb=-cde6[1fg,,]] .",
". i9i-=78@jjjjjjjj)))999aaaaaaaaajjhhhjj%%0a0bhb=-cde6[1fg,,!! .",
"+ 565-=78@',,66,,'){)999akkkkkkkajjj5jjj%%0a0bbb=-cde6[1fg66]] +",
"+ 565-=78.',,66,,'){)-9-akkkkkkka',,6,,'%%0a0bhb=-cde6[1fg,,!! +",
"+ i9i-=78.gggggggg)))-9-000000000',,6,,'%%0a0bhb=-cde6[1fg,,]] +",
"+ 565-=78.ffffffff){)999aa0aaa0aa<<%<<<%<<0a0bhb=-cde6[1fg''!! +",
". ++++++++++++++++++++++000000000<<%<<<%<<0a0bbb=-++++++++++++ .",
".                                                              .",
". @@@@@@~//~;>bbb@@@@@@@@565;>,'@@@@@@lll///###]!;>mn@@@@@@@@@ .",
". oooooo~~~~;>bhb@@@@@@@@565;>,'@@@@@@:::^/^:::]!;>mn@@@@@@@@@ .",
"+ oooooo/~~/;>bhbpqqppqqpi9i;>,'@@@@@@lll^/^###]!;>mn@@@@@@@@@ +",
"+ oooooo/~~/;>bhbpqqppqqpi9i;>,'@@@@@@lll/^/###]!;>mnrrssrssrr +",
"+ oooooo/~~/;>bbbpqqppqqp565;>,'@@@@@@lll/^/###]!;>mnrrssrssrr +",
"+ [1111[/~~/;>bhb&//&&//&565;>,'......lll^/^###]!;>mnrrssrssrr +",
"+ [1111[~~~~;>bhb*//**//*i9i;>,'......:::^/^:::]!;>mntt{{t{{tt +",
". [1111[~//~;>bhb*//**//*565;>,'......lll///###]!;>mn{t{{t{{t{ .",
". ++++++++++++bbb&//&&//&++++++++++++++++++++++++++++tt{{t{{tt .",
".                                                              .",
". 222)))@@@@@@@@@]]''gf1[6edc@@@@n@####%%%@@@@@@@@@@@@@565-=78 .",
"+ 333){)@@@@@@@@@!!,,gf1[6edc@@@nnm::::<<<@@@@@@@@@@@@@565-=78 +",
"+ 333){)@@@@@@@@@]],,gf1[6edc@@nnmu####<<<v=======v@@@@i9i-=78 +",
"+ 222)))@@@@@@@@@!!,,gf1[6edc@nnmum::::<<<v=======v@@@@i9i-=78 +",
"+ 222){)w'''''''w]]66gf1[6edcnnmum@####%%%v=======v@@@@565-=78 +",
"+ 333){)w'''''''w!!,,gf1[6edcnmum..####%%%x-------x....565-=78 +",
". 333)))w'''''''w]],,gf1[6edcmum...::::<<<x-------x....i9i-=78 .",
". 222){)',,,,,,,'!!''gf1[6edcum....####%%%[[[[[[[[[....565-=78 .",
". ++++++',,,,,,,'+++++++++++++++++++++++++111111111+++++++++++ .",
".                                                              .",
"+ t{tyyy;>@@@@@@@@@@@@@@@@@@@@@@@@@@@@999@@@zzz~//~@@@@@@@@@mn +",
"+ tttbbb;>@@@@@@@@@@@@@@@@@@@@@@@@@@@@-9-[}[ABA~~~~@@jjj5jjjmn +",
"+ {{{hhh;>@@@@@@@@@@|#||||||#|@@@@@@@@-9-[[[BAA/~~/@@jjhhhjjmn +",
"+ {{{hhh;>(___((___(|#||||||#|@@@@@@@@999111ABA/~~/CCjjj5jjjmn +",
". tttbbb;>((______((|#||||||#|........999111ABB/~~/CC',,6,,'mn .",
". {{{hhh;>((((((((((@4@@@@@@4@........-9-111BAB/~~/CC',,6,,'mn .",
". ttthhh;>2333223332@4@@@@@@4@........-9-[[[ABA~~~~!]!]!]!]!mn .",
". t{tbbb++2333223332@4@@@@@@4@++++++++999+++zzz~//~!]!]!]!]!++ .",
"+                                                              +",
"+ ~~~!!!=-=5665lll&**&-=bbb0a0@@@@@@@@@@@@@@@@@@@@@@@@@@6e;>,' +",
"+ /^^]!]=-=5665:::&**&-=bhb0a0%%D%%%D%%@@@@@@@@@@@@@@@@@6e;>,' +",
"+ ^/^]!]=-=i99illl////-=bhb0a0%%D%%%D%%@@@@@@@@@@@@@@@@@6e;>,' +",
". ^/^]!]=-=i99illl////-=bhb0a0%%D%%%D%%@@@@@@@t{{{{{{{{t6e;>,' .",
". ^^/!!!=-=5665lll&**&-=bbb0a0%%D%%%D%%E@@@@@@t{{{{{{{{t6e;>,' .",
". //^]!]=-=5665lll&**&-=bhb0a0<<%<<<%<<E......tttttttttt6e;>,' .",
". /^^]!]=-=5665lll////-=bhb0a0<<%<<<%<<E......))))))))))6e;>,' .",
"+ ^/^]!]=-=i99i:::////-=bhb0a02233223322......){{){{){{)6e;>,' +",
"+ ~~~!!!=-=5665lll&**&-=bbb0a02233223322++++++))))))))))6e;>,' +",
"+                                                              +",
"................................................................",
".FFFFFFFFFFFFFFFFFFFFFFFFFFFFFFFFFFFFFFFFFFFFFFFFFFFFFFFFFFFFFF."};
