/* XPM */
static char * Muro S_xpm[] = {
"64 64 4 1",
" 	c #993D00",
".	c #D05300",
"+	c #FD6601",
"@	c #712D00",
" ......    .. ..   ...  .. ..     .... .   ...    . .   ....  . ",
" .+.+++....+. .+...+++..+. .+.....+++. ....+++..... ....++++... ",
" .+.++++++++. .++.+++++++. .+++.+++++. .++++++++.+. .+++++++++. ",
" .+.++++++++. .++.+++++++. .+++.+++++. .++++++++.+. .+++++++++. ",
" .+.++++++++. .++.+++++++. .+++.+++++. .++++++++.+. .+++++++++. ",
" .++.+++++++. .++.+++++++. .+++.+++++. .++++++++.+. .++++++++.+ ",
" .++.+++++++. .++.+++++++. .+++.++++. @ .+++++++.+. .++++++++.+ ",
" .++.+++++++. .++..++++++. .+++.++++. @ .+++++++.+. .++++++++.+ ",
" .++.+++++++. .++..++++++. .+++.++++. @@ .++++++.+. .++++++++.+ ",
" .++.+++++++. .++..++++++. .+++.+++. @@@ .++++++.+. .++++++++.+ ",
" .++.+++++++. .++..++++++. .+++.+++. @@@ .++++++.+. .++++++++.+ ",
" .+++.++++++. .++..++++++. .+++.+++. @@ .+++++++.+. .++++++++.+ ",
" .+++.++++++. .++..++++++. .++++.++. @@ .+++++++.+. .+++++++.++ ",
" .+++.++++++. .++..++++++. .++++.++. @@ .+++++++.+. .+++++++.++ ",
" .+++.++++++. .++..++++++. .++++.+++. @ .+++++++.+. .+++++++.++ ",
" .+++.++++++. .++..++++++. .++++.++++. ..+++++++.+. .+++++++.++ ",
" .+++.++++++. .++..++++++. .++++.++++. ..+++++++.+. .+++++++.++ ",
" .++++.+++++. .++.+.+++++. .++++.++++. ..++++++.++. .+++++++.++ ",
" .++++.+++++. .++.+.+++++. .++++.++++. ..++++++.++. .++++++.+++ ",
" .++++.+++++. .++.+.+++++. .++++.++++. ..++++++.++. .++++++.+++ ",
" .++++.+++++. .++.+.+++++. .++++.++++. ..++++++.++. .++++++.+++ ",
" .++++.+++++. .++.+.+++++. .++++.++++. ..++++++.++. .++++++.+++ ",
" .++++.+++++. .++.+.+++++. .++++.++++. ..++++++.++. .++++++.+++ ",
" .+++++.++++. .++.+.+++++. .++++.++++. ..++++++.++. .++++++.+++ ",
" .+++++.++++. .++.+.+++++. .++++.++++. ..++++++.++. .++++++.+++ ",
" .+++++.++++. .++.+.+++++. .++++.++++. ..++++++.++. .+++++.++++ ",
" .+++++.++++. .+.++.+++++. .++++.++++. ..++++++.++. .+++++.++++ ",
" .+++++.++++. .+.+++.++++. .++++.++++. .+.+++++.++. .+++++.++++ ",
" .+++++.++++. .+.+++.++++. .++++.++++. .+.+++++.++. .+++++.++++ ",
" .+++++.++++. .+.+++.++++. .++++.++++. .+.+++++.++. .+++++.++++ ",
" .+++++..+++. .+.+++.++++. .++++.++++. .+.+++++.++. .+++++.++++ ",
" .+++++..+++. .+.+++.++++. .++++.++++. .+.+++++.++. .+++++.++++ ",
" .+++++..+++. .+.+++.++++. .+++++.+++. .+.+++++.++. .++++..++++ ",
" .+++++..+++. .+.+++.++++. .+++++.+++. .+.+++++.++. .++++..++++ ",
" .++++.+.+++. .+.+++.++++. .+++++.+++. .+.+++++.++. .++++..++++ ",
" .++++.+.+++. .+.+++.++++. .+++++.+++. .+.+++++.++. .++++..++++ ",
" .++++.++.++. .+.+++.++++. .+++++.+++. .+.+++++.++. .++++..++++ ",
" .++++.++.++. .+.++++.+++. .+++++.+++. .+.+++++.++. .++++..++++ ",
" .++++.++.++. .+.++++.+++. .+++++.+++. .+.+++++.++. .++++..++++ ",
" .++++.++.++. .+.++++.+++. .+++++.+++. .+.+++++.++. .+++.+.++++ ",
" .++++.++.++. .+.++++.+++. .+++++.+++. .+.+++++.++. .+++.++.+++ ",
" .++++.++.++. .+.++++.+++. .+++++.+++. .+.+++++.++. .+++.++.+++ ",
" .+++.++++.+. .+.++++.+++. .+++++.+++. .+.+++++.++. .+++.++.+++ ",
" .+++.++++.+. .+.++++.+++. .+++++.+++. .+.+++++.++. .+++.++.+++ ",
" .+++.++++.. @ ..++++.+++. .+++++.+++. .+.+++++.++. .+++.++.+++ ",
" .+++.++++.. @ ..++++.+++. .+++++.+++. .+.+++++.++. .+++.++.+++ ",
" .+++.++++. @@ ..++++.+++. .+++++.+++. .+.+++++.++. .++.+++.+++ ",
" .+++.++++. @@@ .+++++.++. .+++++.+++. .+.++++.+++. .++.+++.+++ ",
" .+++.++++. @@@ .+++++.++. .+++++.+++. .+.++++.+++. .++.+++.+++ ",
" .+++.+++++. @@ .+++++.++. .+++++.+++. .+.++++.+++. .++.+++.+++ ",
" .++.++++++. @@ .+++++.++. .+++++.+++. .+.++++.+++. .++.+++.+++ ",
" .++.++++++. @@ .+++++.++. .+++++.+++. .++.+++.+++. .++.+++.+++ ",
" .++.++++++. @ ..+++++.++. .++++++.++. .++.+++.+++. .+.++++.+++ ",
" .++.++++++. @ ..+++++.++. .++++++.++. .++.+++.+++. .+.++++.+++ ",
" .++.+++++++. .+.+++++.++. .++++++.++. .++.+++.+++. .+.++++.+++ ",
" .++.+++++++. .+.+++++.++. .++++++.++. .++.+++.+++. .+.+++++.++ ",
" .++.+++++++. .+.+++++.++. .++++++.++. .++.+++.+++. .+.+++++.++ ",
" .++.+++++++. ..+++++++.+. .++++++.++. .++.+++.+++. .+.+++++.++ ",
" .+.++++++++. ..+++++++.+. .++++++.++. .++.+++.+++. .+.+++++.++ ",
" .+.++++++++. ..+++++++.+. .++++++.++. .++.+++.+++. ..++++++.++ ",
" .+.++++++++. ..+++++++.+. .++++++.++. .++.+++.+++. ..++++++.++ ",
" .+.++++++++. ..+++++++.+. .++++++.++. .++.+++.+++. ..++++++.++ ",
" .+.++....++. ......++..+. ...++....+. .+..+....++. ..+....+.++ ",
" .....    ... ..    ..  .. .  ..    .. .. ..    ... ...    .... "};
