/* XPM */
static char * Muro O_xpm[] = {
"64 64 5 1",
" 	c #CACACA",
".	c #515151",
"+	c #7F7F7F",
"@	c #9D9D9D",
"#	c #919191",
"                         .+                          .+         ",
"                         .+                          .+         ",
"@@@@@@@@@@@@@@@@@@@@@@@##.+  @@@@@@@@@@@@@@@@@@@@@@##.+  @@@@@@@",
"@@@@@@@@@@@@@@@@@@@@@@@##.+  @@@@@@@@@@@@@@@@@@@@@@##.+  @@@@@@@",
"#########################.+##########################.+#########",
"#########################.+##########################.+#########",
"++++++++++++++++++++++++++++++++++++++++++++++++++++++++++++++++",
"................................................................",
"                          .+                            .+      ",
"                          .+                            .+      ",
"@@@@@@@@@@@@@@@@@@@@@@@@##.+  @@@@@@@@@@@@@@@@@@@@@@@@##.+  @@@@",
"@@@@@@@@@@@@@@@@@@@@@@@@##.+  @@@@@@@@@@@@@@@@@@@@@@@@##.+  @@@@",
"@@@@@@@@@@@@@@@@@@@@@@@@##.+  @@@@@@@@@@@@@@@@@@@@@@@@##.+  @@@@",
"@@@@@@@@@@@@@@@@@@@@@@@@##.+  @@@@@@@@@@@@@@@@@@@@@@@@##.+  @@@@",
"@@@@@@@@@@@@@@@@@@@@@@@@##.+  @@@@@@@@@@@@@@@@@@@@@@@@##.+  @@@@",
"@@@@@@@@@@@@@@@@@@@@@@@@##.+  @@@@@@@@@@@@@@@@@@@@@@@@##.+  @@@@",
"@@@@@@@@@@@@@@@@@@@@@@@@##.+  @@@@@@@@@@@@@@@@@@@@@@@@##.+  @@@@",
"@@@@@@@@@@@@@@@@@@@@@@@@##.+  @@@@@@@@@@@@@@@@@@@@@@@@##.+  @@@@",
"##########################.+############################.+######",
"##########################.+############################.+######",
"++++++++++++++++++++++++++++++++++++++++++++++++++++++++++++++++",
"................................................................",
"      .+                         .+                             ",
"      .+                         .+                             ",
"@@@@##.+  @@@@@@@@@@@@@@@@@@@@@##.+  @@@@@@@@@@@@@@@@@@@@@@@@@@@",
"@@@@##.+  @@@@@@@@@@@@@@@@@@@@@##.+  @@@@@@@@@@@@@@@@@@@@@@@@@@@",
"@@@@##.+  @@@@@@@@@@@@@@@@@@@@@##.+  @@@@@@@@@@@@@@@@@@@@@@@@@@@",
"@@@@##.+  @@@@@@@@@@@@@@@@@@@@@##.+  @@@@@@@@@@@@@@@@@@@@@@@@@@@",
"@@@@##.+  @@@@@@@@@@@@@@@@@@@@@##.+  @@@@@@@@@@@@@@@@@@@@@@@@@@@",
"@@@@##.+  @@@@@@@@@@@@@@@@@@@@@##.+  @@@@@@@@@@@@@@@@@@@@@@@@@@@",
"######.+#########################.+#############################",
"######.+#########################.+#############################",
"++++++++++++++++++++++++++++++++++++++++++++++++++++++++++++++++",
"................................................................",
"                  .+                              .+            ",
"                  .+                              .+            ",
"@@@@@@@@@@@@@@@@##.+  @@@@@@@@@@@@@@@@@@@@@@@@@@##.+  @@@@@@@@@@",
"@@@@@@@@@@@@@@@@##.+  @@@@@@@@@@@@@@@@@@@@@@@@@@##.+  @@@@@@@@@@",
"@@@@@@@@@@@@@@@@##.+  @@@@@@@@@@@@@@@@@@@@@@@@@@##.+  @@@@@@@@@@",
"@@@@@@@@@@@@@@@@##.+  @@@@@@@@@@@@@@@@@@@@@@@@@@##.+  @@@@@@@@@@",
"@@@@@@@@@@@@@@@@##.+  @@@@@@@@@@@@@@@@@@@@@@@@@@##.+  @@@@@@@@@@",
"##################.+##############################.+############",
"##################.+##############################.+############",
"++++++++++++++++++++++++++++++++++++++++++++++++++++++++++++++++",
"................................................................",
"               .+                            .+                 ",
"               .+                            .+                 ",
"@@@@@@@@@@@@@##.+  @@@@@@@@@@@@@@@@@@@@@@@@##.+  @@@@@@@@@@@@@@@",
"@@@@@@@@@@@@@##.+  @@@@@@@@@@@@@@@@@@@@@@@@##.+  @@@@@@@@@@@@@@@",
"@@@@@@@@@@@@@##.+  @@@@@@@@@@@@@@@@@@@@@@@@##.+  @@@@@@@@@@@@@@@",
"@@@@@@@@@@@@@##.+  @@@@@@@@@@@@@@@@@@@@@@@@##.+  @@@@@@@@@@@@@@@",
"###############.+############################.+#################",
"###############.+############################.+#################",
"++++++++++++++++++++++++++++++++++++++++++++++++++++++++++++++++",
"................................................................",
"                         .+                         .+          ",
"                         .+                         .+          ",
"@@@@@@@@@@@@@@@@@@@@@@@##.+  @@@@@@@@@@@@@@@@@@@@@##.+  @@@@@@@@",
"@@@@@@@@@@@@@@@@@@@@@@@##.+  @@@@@@@@@@@@@@@@@@@@@##.+  @@@@@@@@",
"@@@@@@@@@@@@@@@@@@@@@@@##.+  @@@@@@@@@@@@@@@@@@@@@##.+  @@@@@@@@",
"#########################.+#########################.+##########",
"#########################.+#########################.+##########",
"++++++++++++++++++++++++++++++++++++++++++++++++++++++++++++++++",
"................................................................"};
